<svg width="70" height="60" fill="none" xmlns="http://www.w3.org/2000/svg"><g clip-path="url(#a)"><path fill-rule="evenodd" clip-rule="evenodd" d="M14.54.007c-3.995 0-6.95 3.76-6.818 7.84.127 3.917-.038 8.992-1.226 13.13-1.191 4.15-3.205 6.78-6.496 7.117v3.811c3.29.339 5.305 2.967 6.496 7.118 1.188 4.138 1.353 9.213 1.226 13.13-.132 4.079 2.823 7.84 6.818 7.84h40.926c3.994 0 6.95-3.76 6.817-7.84-.127-3.917.038-8.992 1.225-13.13 1.192-4.15 3.201-6.78 6.492-7.118v-3.81c-3.29-.339-5.3-2.967-6.492-7.118-1.187-4.137-1.352-9.213-1.225-13.13.132-4.079-2.823-7.84-6.817-7.84H14.54Zm32.918 36.925c0 5.616-3.894 9.022-10.356 9.022h-11c-.315 0-.617-.135-.84-.374a1.327 1.327 0 0 1-.347-.903V15.323c0-.339.125-.663.348-.903.222-.24.524-.373.839-.373h10.937c5.388 0 8.925 3.14 8.925 7.96 0 3.383-2.38 6.412-5.41 6.943v.176c4.126.487 6.904 3.56 6.904 7.806Zm-11.556-18.84H29.63v9.53h5.283c4.084 0 6.336-1.768 6.336-4.93-.001-2.963-1.937-4.6-5.347-4.6ZM29.63 31.404v10.503h6.503c4.252 0 6.504-1.836 6.504-5.285s-2.315-5.219-6.777-5.219h-6.23v.001Z" fill="#7952B3"/></g><defs><clipPath id="a"><path fill="#fff" d="M0 0h70v60H0z"/></clipPath></defs></svg>