<svg width="45" height="55" fill="none" xmlns="http://www.w3.org/2000/svg"><path d="M22.483 27.323c0-5.024 5.045-9.102 11.259-9.102S45 22.3 45 27.323s-5.044 9.102-11.258 9.102c-6.214 0-11.259-4.078-11.259-9.102Z" fill="#1ABCFE"/><path d="M0 45.502c0-5.025 5.045-9.105 11.258-9.105h11.259v9.105c0 5.026-5.045 9.106-11.259 9.106C5.045 54.608 0 50.528 0 45.503Z" fill="#0ACF83"/><path d="M22.483.027v18.194h11.259C39.956 18.221 45 14.14 45 9.111 45 4.082 39.956 0 33.742 0H22.483v.027Z" fill="#FF7262"/><path d="M0 9.147c0 5.024 5.045 9.103 11.258 9.103h11.259V.072H11.258C5.045.045 0 4.123 0 9.147Z" fill="#F24E1E"/><path d="M0 27.324c0 5.024 5.045 9.102 11.258 9.102h11.259V18.25H11.258C5.045 18.223 0 22.3 0 27.324Z" fill="#A259FF"/></svg>