<svg width="40" height="38" fill="none" xmlns="http://www.w3.org/2000/svg"><path d="M20 0C8.957 0 0 8.521 0 19.03c0 8.41 5.73 15.543 13.678 18.06.999.176 1.322-.414 1.322-.915v-3.543c-5.563 1.151-6.722-2.246-6.722-2.246-.91-2.2-2.221-2.785-2.221-2.785-1.815-1.181.138-1.156.138-1.156 2.008.133 3.065 1.962 3.065 1.962 1.783 2.908 4.678 2.068 5.82 1.581.178-1.23.697-2.07 1.27-2.544-4.442-.483-9.112-2.115-9.112-9.406 0-2.079.782-3.776 2.06-5.108-.206-.48-.891-2.417.195-5.037 0 0 1.68-.51 5.502 1.95A20.1 20.1 0 0 1 20 9.204c1.7.008 3.412.219 5.01.64 3.818-2.46 5.495-1.95 5.495-1.95 1.088 2.622.403 4.558.197 5.037 1.283 1.332 2.058 3.03 2.058 5.108 0 7.31-4.678 8.92-9.132 9.39.717.59 1.372 1.748 1.372 3.524v5.223c0 .506.32 1.1 1.335.913C34.277 34.568 40 27.436 40 19.031 40 8.52 31.045 0 20 0Z" fill="#000"/></svg>