<svg width="38" height="36" fill="none" xmlns="http://www.w3.org/2000/svg"><path fill-rule="evenodd" clip-rule="evenodd" d="M32.265 5.357C28.757 2.014 24.09.173 19.12.17 8.878.17.542 8.103.538 17.85a16.996 16.996 0 0 0 2.48 8.84L.382 35.854l9.85-2.459a19.313 19.313 0 0 0 8.88 2.152h.008c10.242 0 18.579-7.932 18.582-17.681.003-4.725-1.929-9.167-5.437-12.51ZM19.12 32.56h-.006a16.027 16.027 0 0 1-7.861-2.049l-.564-.318-5.846 1.46 1.56-5.424-.367-.556a14.14 14.14 0 0 1-2.36-7.822c.002-8.102 6.931-14.695 15.45-14.695 4.126.002 8.004 1.532 10.92 4.31 2.916 2.778 4.52 6.47 4.52 10.397-.005 8.104-6.933 14.697-15.446 14.697Zm8.472-11.007c-.464-.221-2.747-1.29-3.173-1.437-.425-.148-.735-.221-1.044.221-.31.442-1.2 1.437-1.47 1.732-.271.295-.542.332-1.006.11-.465-.22-1.96-.687-3.734-2.192-1.38-1.172-2.312-2.619-2.583-3.06-.27-.443-.003-.66.203-.902.503-.594 1.006-1.217 1.161-1.512.155-.294.077-.553-.039-.774-.116-.22-1.044-2.395-1.431-3.28-.377-.861-.76-.745-1.045-.759-.27-.012-.58-.015-.89-.015-.31 0-.812.11-1.238.553-.426.442-1.625 1.511-1.625 3.686 0 2.174 1.664 4.275 1.896 4.57.232.295 3.274 4.758 7.932 6.671 1.107.456 1.972.727 2.647.93 1.112.337 2.124.29 2.924.176.892-.127 2.747-1.069 3.134-2.1.387-1.033.387-1.918.27-2.102-.115-.184-.425-.295-.889-.516Z" fill="#000"/></svg>