<svg width="60" height="60" fill="none" xmlns="http://www.w3.org/2000/svg"><path d="M30 0C13.435 0 0 13.432 0 30c0 13.255 8.595 24.5 20.517 28.468 1.498.277 1.983-.653 1.983-1.443V51.44c-8.345 1.815-10.082-3.54-10.082-3.54-1.365-3.468-3.333-4.39-3.333-4.39-2.723-1.862.207-1.822.207-1.822 3.013.21 4.598 3.092 4.598 3.092 2.675 4.585 7.017 3.26 8.73 2.492.267-1.937 1.045-3.262 1.905-4.01-6.662-.762-13.667-3.334-13.667-14.827 0-3.277 1.172-5.952 3.09-8.052-.31-.758-1.338-3.81.292-7.94 0 0 2.52-.806 8.252 3.075 2.393-.666 4.958-.998 7.508-1.01 2.55.012 5.117.345 7.515 1.01 5.727-3.88 8.242-3.075 8.242-3.075 1.633 4.132.605 7.185.296 7.94 1.925 2.1 3.087 4.777 3.087 8.052 0 11.523-7.017 14.06-13.697 14.802 1.075.93 2.057 2.755 2.057 5.555v8.233c0 .797.48 1.735 2.002 1.44C51.415 54.492 60 43.25 60 30 60 13.432 46.568 0 30 0Z" fill="#000"/></svg>