<svg width="60" height="60" fill="none" xmlns="http://www.w3.org/2000/svg"><g clip-path="url(#a)"><path d="m3.778 1.986 3.894 49.818a1.843 1.843 0 0 0 1.28 1.613l20.491 6.497c.362.115.752.115 1.114 0l20.49-6.497a1.843 1.843 0 0 0 1.281-1.613l3.894-49.818A1.843 1.843 0 0 0 54.385 0H5.615c-1.074 0-1.92.915-1.837 1.986Zm42.458 15.457H20.857l.766 7.063h24.06L44.11 44.641 30 49.115 15.89 44.64l-.822-10.52h7.406v5.16l7.724 2.074 7.678-2.073.596-8.224H14.828l-1.57-20.082h33.483l-.505 6.467Z" fill="#FC490B"/></g><defs><clipPath id="a"><path fill="#fff" d="M0 0h60v60H0z"/></clipPath></defs></svg>