<svg width="60" height="60" fill="none" xmlns="http://www.w3.org/2000/svg"><g clip-path="url(#a)"><path d="M5.567 53.931-.003.003l60 .02-5.523 53.867-24.524 6.093L5.567 53.93Zm44.39-2.943 4.657-46.19h-24.57l.187 50.944 19.727-4.754ZM27.752 11.57h-5.968l-.07 27.643-11.583-2.779.023 6.32 17.598 4.178V11.57Z" fill="#D4B830"/><path opacity=".986" d="m10.153 42.754-.023-6.319s7.395 1.832 11.583 2.779l.07-27.623h5.968v35.342l-17.598-4.179Z" fill="#EBEBEB" fill-opacity=".922"/><path d="M30.044 4.778h24.57l-4.656 46.189-19.914 4.755V4.778Zm18.65 38.45 1.615-17.27-11.934 1.174V17.91l12.73-.04.514-6.3-19.212.083.258 22.93 11.607-1.75-.164 5.105-11.7 2.737.117 6.258 16.17-3.705Z" fill="#FDD83C"/></g><defs><clipPath id="a"><path fill="#fff" d="M0 0h60v60H0z"/></clipPath></defs></svg>