<svg width="180" height="60" fill="none" xmlns="http://www.w3.org/2000/svg"><path d="M83.576 20.87v-.001l-1.078 5.37 1.078-5.368ZM89.123 32.528l-1.189-.009 1.189.01ZM88.818 40.549l-7.12.034 7.12-.034ZM90.311 32.538l-1.188-.009 1.188.01ZM89.444 39.867l1.24-6.646-1.24 6.647v-.001ZM115.658 9.262l-2.31 15.26 2.31-15.26ZM109.718 9.262l-1.754 11.4 1.754-11.4Z" fill="#222"/><path d="M115.263 8.576h-4.941c-.274 0-.546.309-.604.685l-1.754 11.402-1.754 11.4c-.059.377-.33.684-.604.684h-3.498c-3.46 0-3.06-3.361-2.35-7.967l.02-.139.079-.58.014-.11.158-1.182.169-1.267c.052-.382.13-.94.181-1.291l.797-5.474.798-5.474c.055-.377-.125-.687-.399-.687h-5.071c-.274 0-.546.31-.602.686l-1.09 7.268-1.09 7.267v.011l-.102.676c-1.256 8.056-.922 15.738 5.903 15.979.112.004.198.005.198.005h10.715c.274 0 .545-.309.603-.686l2.31-15.259 2.311-15.26c.057-.378-.121-.687-.395-.687M134.972 32.827c.274 0 .454.31.399.687l-.48 3.294M134.411 40.104l.48-3.296-.48 3.297v-.001M133.812 40.797l.004-.001a924.1 924.1 0 0 1-.002.001M121.758 28.584c-.004-.361.288-.982.563-.982l-.617-.015c-.279 3.929.054.997.054.997M125.156 40.858h-.096.096Z" fill="#222"/><path d="M134.972 32.827c.274 0 .454.31.399.687l-.48 3.294-.078.537M125.914 40.857h-.118.118ZM126.211 40.856h-.299.299ZM127.474 40.85l-1.192.005c.393 0 .793-.003 1.192-.005ZM134.411 40.105l.402-2.76-.402 2.763v-.003M53.159 28.667l.768-4.78-.878 5.464-.842 5.565.738-4.879c.057-.377.154-.994.214-1.37ZM62.347 8.495H56.92c-.274 0-.548.308-.609.684l-.514 3.19-.514 3.191c-.061.376.114.684.388.684h5.468c.274 0 .547-.308.605-.685l.497-3.19.498-3.188V9.18c.059-.377-.117-.685-.392-.685M61.165 19.108l-1.591 10.344 1.591-10.344ZM45.403 53.38a338.39 338.39 0 0 0 .001 0M54.695 19.107l-.769 4.78.769-4.78Z" fill="#222"/><path d="M60.772 18.423h-5.469c-.274 0-.547.308-.608.684l-.769 4.78-.767 4.78c-.06.376-.157.993-.214 1.37l-.738 4.88-.738 4.878c-.057.376-.175.984-.262 1.35 0 0-1.022 4.27-2.74 4.222-.072-.002-.144-.003-.215-.006l-1.485-.038c-.273-.006-.55.294-.613.67l-.567 3.348-.566 3.348c-.064.374.108.683.38.69.974.017 3.156.05 4.476.05 4.29 0 6.552-3.339 8.002-12.949l1.697-11.028 1.591-10.345c.058-.376-.12-.684-.394-.684M138.457 40.468c-.274 0-.451-.309-.394-.686l4.114-27.072M144.175 39.78l1.664-11.554-1.664 11.555Z" fill="#222"/><path d="M138.124 40.125c-.034-.189-.015-.651.044-1.028l1.952-12.85-2.057 13.535c-.057.377.12.686.394.686h.5c-.274 0-.8-.154-.833-.343ZM143.849 40.314c-.149.085-.496.154-.771.154h.499c.274 0 .544-.309.599-.687l.098-.687c-.054.378-.276 1.135-.425 1.22ZM145.007 34.004l.734-5.1v.01l-.733 5.09h-.001ZM161.238 14.523l.227 1.316c.063.376-.111.682-.384.683M144.274 39.094l.733-5.09-.733 5.09ZM161.014 13.176l.224 1.348-.224-1.348Z" fill="#222"/><path d="M145.741 28.904c.055-.378.145-.989.202-1.363l.784-5.163-.888 5.848-.098.678ZM142.243 12.266c-.054.365-.124.825-.171 1.13l-1.952 12.85 2.057-13.536.066-.444Z" fill="#222"/><path d="m161.465 15.839-.227-1.316-.224-1.347-.113-.682c-.445-2.425-1.749-3.824-4.58-3.824l-4.408-.006-4.059-.008h-4.568c-.274 0-.545.308-.602.686l-.202 1.34-.238 1.585-.066.443-2.057 13.537-1.953 12.85c-.058.377-.077.84-.044 1.028.033.189.56.343.834.343h4.121c.274 0 .622-.07.771-.154.149-.085.371-.842.425-1.22l.733-5.09.733-5.09v-.01l.097-.677.888-5.849.785-5.164c.058-.375.328-.682.603-.683l12.966-.01c.273 0 .447-.306.384-.682" fill="#222"/><path d="M178.155 3.944c-.275.003-.724.005-.998.005h-4.15c-.275 0-.626.261-.781.58l-9.178 18.888c-.155.319-.331.271-.392-.103l-.675-4.162c-.061-.376-.336-.683-.61-.683h-5.9c-.275 0-.437.302-.362.673l2.643 13.01c.076.372.081.98.014 1.354l-1.154 6.297c-.067.374.101.68.376.68h5.831c.274 0 .554-.306.623-.68l1.152-6.297c.068-.373.259-.931.424-1.24l14.899-27.78c.165-.308.076-.558-.198-.556l-1.564.014ZM131.286 20.24v-.008c-.035.419-.309.725-.583.725h-7.48c-.259 0-.39-.247-.352-.552.004-.009.004-.016.007-.024 0 0-.004 0-.005.003 0-.012 0-.023.004-.035l.035-.179c.714-2.668 2.169-4.42 4.904-4.42 3.079 0 3.68 2.114 3.471 4.49h-.001Zm-2.194-12.13c-9.601 0-11.876 8.188-13.152 16.451-1.277 8.423-1.167 16.298 8.769 16.298h.353l.094-.001h.641l.116-.001.299-.002h.071c.393 0 .792-.003 1.192-.005h.02c2.624-.014 5.255-.042 6.321-.054.273-.006.54-.315.596-.689l.403-2.762.077-.538.48-3.294c.055-.377-.125-.686-.399-.686h-8.932c-3.552 0-4.607-1.327-4.219-5.226H136.1v.003c.004 0 .007-.003.01-.003.227-.005.436-.225.52-.517a.995.995 0 0 0 .034-.175v.002c2.12-11.235 1.512-18.801-7.57-18.801M83.711 20.197l-.135.672v.002l-1.078 5.368-1.078 5.366c-.075.371-.36.675-.635.675H75.08c-4.328 0-5.383-4.757-4.328-11.772 1.054-7.175 3.12-11.636 7.38-12.088 5.821-.617 6.986 5.136 5.58 11.777Zm3.914 11.67s2.69-9.177 3.301-14.479C91.76 10.293 89.231 0 79.463 0c-9.712 0-13.93 9.826-15.54 20.508-1.608 10.759.5 20.194 10.157 20.117l7.619-.04 7.12-.036c.275-.004.555-.31.625-.681l1.24-6.647c.07-.373-.098-.68-.373-.682l-1.188-.01-1.189-.01c-.233-.002-.367-.214-.338-.495a.879.879 0 0 1 .028-.157" fill="#222"/><path d="M135.704 25.724c0 .254-.146.46-.327.46-.181 0-.328-.206-.328-.46 0-.253.147-.459.328-.459.181 0 .327.206.327.46Z" fill="#222"/><path fill-rule="evenodd" clip-rule="evenodd" d="M0 12.103v16.632C0 40.982 7.15 50.91 15.97 50.91h3.993c8.82 0 15.97-9.928 15.97-22.175V12.103c0-3.062-1.788-5.544-3.993-5.544H3.993C1.787 6.559 0 9.04 0 12.103Z" fill="#FEA620"/><path fill-rule="evenodd" clip-rule="evenodd" d="M5.989 25.963c0 9.185 5.362 16.632 11.978 16.632 6.614 0 11.977-7.447 11.977-16.632h-5.99c0 4.592-2.68 8.316-5.987 8.316-3.308 0-5.989-3.724-5.989-8.316v-8.317h-5.99v8.317ZM25.453 13.073l-1.398 8.039 5.789 2.078 1.497-8.038-5.889-2.079Z" fill="#fff"/><path d="M108.991 57.453h-.945l-.136-.38s-.765.459-1.283.459c-1.453 0-1.408-1.661-1.149-3.322l.484-3.228h1.081l-.214 2.5-.101.76c-.147.949-.237 1.644.473 1.644h.811l.754-4.904h1.205l-.98 6.47ZM114.306 52.517s-1.317.016-1.677.016c-.766 0-.845.332-.901.68l-.045.316 2.432.253s.011 1.092-.09 1.71c-.147 1.027-.901 2.072-2.264 2.072-.675 0-1.768-.364-1.768-.364l.192-1.25h1.678c.743 0 .844-.285.889-.57l.057-.41-2.388-.254s-.09-.839.034-1.677c.18-1.14.924-2.12 2.286-2.12.676 0 1.768.348 1.768.348l-.203 1.25ZM117.257 52.438c-.608 0-.923.443-1.047 1.233l1.734-.205c.079-.538 0-1.028-.687-1.028Zm-1.217 2.404c-.079.792.136 1.06.856 1.06h1.813l-.18 1.203s-1.092.427-1.903.427c-2.016 0-2.038-1.598-1.779-3.306.259-1.677.721-3.339 2.669-3.339 1.88 0 1.971 1.598 1.509 3.955h-2.985ZM122.246 53.798c.157-1.012.112-1.202-.26-1.202h-.563l-.36 2.373-.552 2.484h-1.047l.855-5.632.125-.823h.957l.123.38s.553-.459 1.093-.459c1.148 0 1.059 1.218.811 2.88h-1.182ZM128.101 50.175c-.461 0-.754-.19-.642-.98.124-.791.484-.981.935-.981.45 0 .754.19.63.98-.112.775-.473.981-.923.981Zm-.495 7.278h-1.036l.202-2.532.361-2.34-.721-.222.202-1.377h1.971l-.979 6.47ZM132.572 57.453h-1.082l.203-2.5.113-.712c.146-.95.224-1.645-.485-1.645h-.81l-.744 4.857h-1.205l.98-6.47h.946l.147.379s.754-.459 1.272-.459c1.442 0 1.408 1.646 1.149 3.322l-.484 3.228ZM136.939 52.359l-1.294.221-.372 2.468c-.101.68-.101.87.326.87h.867l-.18 1.298s-.788.332-1.126.332c-1.328 0-1.317-1.029-1.081-2.563l.361-2.42-.722-.222.215-1.376h.754l.428-1.63h1.025l-.248 1.63h1.261l-.214 1.392ZM139.631 52.438c-.608 0-.924.443-1.048 1.233l1.734-.205c.08-.538 0-1.028-.686-1.028Zm-1.217 2.404c-.078.792.135 1.06.856 1.06h1.813l-.18 1.203s-1.092.427-1.903.427c-2.015 0-2.038-1.598-1.779-3.306.259-1.677.72-3.339 2.668-3.339 1.882 0 1.971 1.598 1.509 3.955h-2.984ZM144.619 53.798c.158-1.012.112-1.202-.259-1.202h-.563l-.36 2.373-.553 2.484h-1.047l.857-5.632.123-.823h.957l.125.38s.551-.459 1.091-.459c1.149 0 1.059 1.218.811 2.88h-1.182ZM150.002 50.002h-.867c-.462 0-.496.41-.586.996h1.172l-.203 1.376-1.239.237-.744 4.873-.562 2.516h-1.025l.383-2.531.743-4.873-.721-.222.203-1.376h.755c.236-1.503.597-2.705 1.891-2.705.338 0 1.003.395 1.003.395l-.203 1.313ZM152.04 52.564c-.675 0-.913.618-1.07 1.661-.158 1.06-.101 1.63.575 1.63h.945l.485-3.29h-.935Zm2.027.918-.597 3.971h-.935l-.146-.443s-.811.522-1.408.522c-1.43 0-1.509-1.598-1.249-3.306.247-1.677.821-3.339 2.263-3.339.934 0 2.41.364 2.41.364l-.338 2.23ZM158.673 52.549h-1.386c-.698 0-1.114.696-1.272 1.693-.146.98.079 1.66.799 1.66h1.442l-.192 1.266s-1.013.38-1.79.38c-1.43 0-1.756-1.614-1.498-3.306.259-1.71 1.07-3.355 2.467-3.355.686 0 1.644.348 1.644.348l-.214 1.314ZM161.428 52.438c-.608 0-.923.443-1.047 1.233l1.734-.205c.079-.538 0-1.028-.687-1.028Zm-1.216 2.404c-.079.792.135 1.06.855 1.06h1.814l-.181 1.203s-1.092.427-1.903.427c-2.016 0-2.038-1.598-1.779-3.306.259-1.677.721-3.339 2.669-3.339 1.88 0 1.971 1.598 1.509 3.955h-2.984Z" fill="#FEA620"/></svg>