<svg width="180" height="60" fill="none" xmlns="http://www.w3.org/2000/svg"><g clip-path="url(#a)" fill-rule="evenodd" clip-rule="evenodd"><path d="m172.167 4.472 7.53.06s-14.001 27.913-15.144 30.188c-.371.737-.935 1.531-1.221 2.516-.723 2.476-1.466 7.906-1.466 7.906l-6.89.05s1.072-5.66 1.028-8.675c-.039-2.634-.953-5.264-1.466-7.906-.518-2.674-1.221-7.906-1.221-7.906h7.084l.977 5.75 10.789-21.983Z" fill="#1A1918"/><path d="M157.907 10.359c1.39 1.232 2.242 8.032 2.242 8.032s-7.271.158-11.229.158h-3.419l-4.153 26.593h-6.35s3.952-28.9 4.885-34.14c.303-1.696 2.071-1.405 5.058-1.405h4.771c3.08 0 6.68-.579 8.195.762ZM128.341 23.31s.198-1.707-.671-3.683c-.743-1.686-1.429-2.077-3.383-2.167-5.518-.255-5.411 5.76-5.411 5.76l9.465.09Zm5.985-6.889c.809 4.291-.733 14.375-.733 14.375s-8.048-.198-12.457 0c-1.371.061-3.012-.22-3.42.719-.574 1.315.21 3.339.874 4.194.765.984 2.255 1.096 2.79 1.196 3.578.669 11.068.173 11.068.173l-1.298 8.452s-10.583.78-15.877-1.078a5.259 5.259 0 0 1-2.686-2.156c-.181-.287-.338-.68-.509-1.017-.136-.27-.534-1.157-.713-1.858-1.209-4.74.142-13.822 1.466-18.687.153-.565.347-1.28.55-1.887.253-.758.468-1.614.671-2.067.137-.312.306-.514.447-.808.164-.349.354-.687.53-.988.489-.834 1.043-1.424 1.71-2.156 2.205-2.43 6.197-4.317 10.992-3.594 1.805.273 4.531 1.222 5.862 3.953.357.73.533 2.178.733 3.234ZM105.198 9.564l6.158-.054s-3.432 23.953-5.181 35.632h-7.084c-4.95 0-9.36.902-11.236-4.313-1.82-5.063-.083-13.39.733-19.046.577-4.004 1.79-12.186 1.79-12.186l6.38-.087s-1.802 12.74-2.552 19.1c-.269 2.28-.823 4.425-.244 6.11.55 1.603 1.319 1.718 3.664 1.797.742.026 3.175 0 3.175 0l4.397-26.953ZM76.375 26.813c.645-3.37 1.585-7.025 1.465-10.062-.129-3.249-1.98-6.207-3.175-6.828-3.598-1.869-6.966.744-8.305 2.874-1.732 2.76-2.318 5.985-2.931 10.423-.457 3.295-.83 6.774 0 9.343 1.47 4.543 6.055 3.551 10.992 3.594.732-2.89 1.338-6.134 1.954-9.344Zm8.55-13.297c.703 7.526-1.996 15.831-3.855 23.054 1.895.252 3.556-.039 3.676.17.124.269-1.27 8.62-1.757 8.642-1.504.058-6.49.119-8.568.119-6.783 0-13.13.65-16.366-4.313-1.314-2.016-2.222-5.473-2.442-7.906-.367-4.061.093-8.532.733-12.218.579-3.329 1.32-6.47 2.442-9.345C61.638 4.4 66.598-1.034 74.91.22c1.612.245 3.928 1.284 5.374 2.516.1.087.45.496.53.568 1.954 1.83 3.735 6.196 4.111 10.213ZM54.912 9.607c-.41 2.75-.821 5.866-1.253 8.582h-6.84c.53-3.011.936-6.005 1.466-8.625 2.189 0 4.223.043 6.627.043ZM46.575 20.705h6.595c-.862 7.022-2.57 18.35-3.908 26.234-.838 4.934-1.397 8.535-3.664 11.14-.203.234-.32.123-.488.36-.418.586-2.35 1.265-3.42 1.437-1.74.277-3.706.036-5.843-.028.56-3.008 1.192-6.62 1.69-9.315 5.21.927 5.343-6.318 6.351-13.297.584-4.032 2.353-14.914 2.687-16.531Z" fill="#1A1918"/><path d="m31.187 39.033-.142.539c-2.408 6.9-6.676 11.133-12.763 11.32-2.845.086-5.556-.988-7.328-2.156-3.822-2.527-7.037-7.212-8.793-12.219C-.357 29.34-.81 19.357 4.426 11.9c.08 0-.636 1.617-.555 1.617l-.144.69C-.047 31.59 11.58 46.487 22.882 44.783c2.716-.41 6.18-2.598 8.305-5.75Z" fill="#21609B"/><path d="M24.347 31.845c2.844.03 5.814-1.926 7.572-4.671-1.538 5.746-5.994 9.44-11.968 8.265-5.003-.985-9.768-8.391-10.26-15.812-.358-5.401.921-8.625 3.03-12.535-.733 2.045-1.007 3.622-1.075 4.628-.801 11.684 6.343 20.064 12.701 20.125Z" fill="#21609B"/><path d="M31.634 17.334c-.442 1.492-2.987 4.309-4.111 4.66-4.45 1.396-7.3-1.71-8.794-5.242-.222-.529-.632-1.97-.706-2.336-.578-2.897-.312-7.277 1.415-9.545-.52 2.156-.596 4.66-.322 6.289.165.985.67 2.703 1.177 3.784.92 1.97 1.504 2.448 2.687 3.493.532.471 1.104.849 1.35.953 1.121.485 3.488 1.764 7.304-2.056Z" fill="#21609B"/></g><defs><clipPath id="a"><path fill="#fff" d="M0 0h180v60H0z"/></clipPath></defs></svg>