<svg width="60" height="60" fill="none" xmlns="http://www.w3.org/2000/svg"><path d="M2.496 4.104h54.9v53.4h-54.9v-53.4Z" fill="url(#a)"/><path d="M2.496 4.104h54.9v53.4h-54.9v-53.4ZM0 60h59.88V1.608H0V60Zm40.38-34.428c-1.968 0-2.64.996-2.64 1.824 0 .9.444 1.524 3.096 2.892 3.912 1.896 5.136 3.72 5.136 6.384 0 3.996-3.048 6.144-7.164 6.144-2.172 0-4.044-.444-5.112-1.068-.18-.072-.204-.204-.204-.396v-3.684c0-.252.12-.324.3-.204a9.302 9.302 0 0 0 5.016 1.476c1.968 0 2.796-.828 2.796-1.944 0-.9-.576-1.692-3.096-3-3.54-1.692-5.016-3.408-5.016-6.288 0-3.216 2.52-5.892 6.888-5.892 2.148 0 3.648.324 4.464.696.204.12.252.324.252.504v3.42c0 .204-.12.324-.372.252-1.104-.696-2.724-1.116-4.344-1.116Zm-21.456 2.964c.576.048 1.02.048 2.016.048 2.916 0 5.664-1.02 5.664-4.992 0-3.168-1.968-4.764-5.292-4.764-.996 0-1.944.048-2.4.072l.012 9.636Zm-4.452-13.248c0-.18.348-.3.552-.3a155.01 155.01 0 0 1 6.432-.12c6.912 0 9.612 3.792 9.612 8.628 0 6.336-4.596 9.06-10.236 9.06-.948 0-1.272-.048-1.944-.048v9.576c0 .204-.072.3-.3.3h-3.816c-.204 0-.3-.072-.3-.3V15.288Z" fill="#31C5F0"/><defs><radialGradient id="a" cx="0" cy="0" r="1" gradientUnits="userSpaceOnUse" gradientTransform="matrix(41.7178 0 0 40.3905 20.59 16.085)"><stop stop-color="#34364E" stop-opacity=".98"/><stop offset="1" stop-color="#0C0824"/></radialGradient></defs></svg>