<svg width="90" height="60" fill="none" xmlns="http://www.w3.org/2000/svg"><path d="M45 59.822c24.853 0 45-13.391 45-29.91C90 13.391 69.853 0 45 0S0 13.392 0 29.911c0 16.52 20.147 29.911 45 29.911Z" fill="url(#a)"/><path d="M45 57.6c23.882 0 43.242-12.397 43.242-27.689S68.882 2.222 45 2.222c-23.882 0-43.242 12.397-43.242 27.69C1.758 45.202 21.118 57.6 45 57.6Z" fill="#6181B6"/><path d="m53.754 38.889 2.144-13.956c.493-3.155.07-5.51-1.195-6.977-1.23-1.423-3.34-2.134-6.434-2.134h-3.726l1.055-6.933c.035-.267 0-.533-.141-.756-.14-.222-.316-.31-.527-.31h-5.133c-.352 0-.633.31-.703.71l-2.285 14.8c-.211-1.688-.703-3.11-1.547-4.266-1.512-2.178-3.867-3.29-7.067-3.29h-9.879c-.351 0-.632.312-.703.712l-4.605 30.044c-.035.267 0 .534.14.756.141.222.317.311.528.311h5.168c.351 0 .633-.311.703-.711l1.125-7.245h3.832c2.004 0 3.726-.266 5.027-.8 1.371-.577 2.602-1.51 3.692-2.8a14.28 14.28 0 0 0 2.18-3.422l-.915 6c-.035.267 0 .534.14.756.142.222.317.31.528.31h5.133c.352 0 .633-.31.703-.71l2.531-16.445h3.516c1.512 0 1.934.356 2.074.534.106.133.317.666.07 2.31l-2.038 13.29c-.036.266 0 .533.14.755.14.223.317.311.528.311h5.273c.316-.133.598-.444.668-.844ZM29.988 27.333c-.316 2.09-.914 3.6-1.793 4.445-.879.844-2.32 1.289-4.218 1.289H21.69l1.653-10.756h2.953c2.18 0 3.058.578 3.41 1.067.457.71.563 2.089.281 3.955ZM75.691 19.067c-1.511-2.178-3.867-3.29-7.066-3.29h-9.95c-.35 0-.632.312-.702.712l-4.606 30c-.035.267 0 .533.14.756.142.222.317.31.528.31h5.168c.352 0 .633-.31.703-.71l1.125-7.245h3.832c2.004 0 3.727-.267 5.028-.8 1.37-.578 2.601-1.511 3.691-2.8a14.267 14.267 0 0 0 2.25-3.556 17.45 17.45 0 0 0 1.23-4.266c.598-3.867.141-6.89-1.37-9.111Zm-5.379 8.266c-.316 2.09-.913 3.6-1.793 4.445-.878.844-2.32 1.289-4.218 1.289h-2.285l1.652-10.756h2.953c2.18 0 3.059.578 3.41 1.067.492.71.598 2.089.281 3.955Z" fill="#fff"/><path d="M26.297 21.422c1.969 0 3.27.445 3.937 1.378.668.933.809 2.489.457 4.711-.351 2.311-1.054 4-2.074 4.978-1.02.978-2.566 1.467-4.64 1.467h-3.13l1.934-12.534h3.516ZM13.71 46.667h5.168l1.23-7.956h4.43c1.969 0 3.55-.267 4.816-.8s2.391-1.378 3.446-2.622a13.302 13.302 0 0 0 2.11-3.333c.526-1.2.913-2.534 1.124-4 .563-3.556.14-6.311-1.23-8.311-1.371-2-3.551-2.978-6.54-2.978h-9.949l-4.605 30ZM39.832 8.711h5.133l-1.23 7.956h4.57c2.883 0 4.851.622 5.941 1.91 1.09 1.29 1.406 3.334.984 6.179L53.087 38.71h-5.203l2.039-13.289c.246-1.51.14-2.533-.246-3.066-.387-.534-1.266-.845-2.567-.845h-4.113l-2.637 17.2h-5.133l4.606-30ZM66.621 21.422c1.969 0 3.27.445 3.938 1.378.668.933.808 2.489.457 4.711-.352 2.311-1.055 4-2.075 4.978-1.02.978-2.566 1.467-4.64 1.467h-3.13l1.934-12.534h3.516ZM54.035 46.667h5.168l1.23-7.956h4.43c1.969 0 3.551-.267 4.817-.8 1.265-.533 2.39-1.378 3.445-2.622a13.302 13.302 0 0 0 2.11-3.333c.527-1.2.913-2.534 1.124-4 .563-3.556.141-6.311-1.23-8.311s-3.55-2.978-6.54-2.978h-9.948l-4.606 30Z" fill="#000004"/><defs><radialGradient id="a" cx="0" cy="0" r="1" gradientUnits="userSpaceOnUse" gradientTransform="matrix(59.096 0 0 74.709 27.018 10.519)"><stop stop-color="#fff"/><stop offset=".5" stop-color="#4C6B97"/><stop offset="1" stop-color="#231F20"/></radialGradient></defs></svg>