<svg width="120" height="108" fill="none" xmlns="http://www.w3.org/2000/svg"><path d="M55.58 2.396a.755.755 0 0 0 .764-.745.755.755 0 0 0-.764-.746.755.755 0 0 0-.764.746c0 .412.342.745.764.745ZM51.76 6.124a.755.755 0 0 0 .764-.745.755.755 0 0 0-.764-.746.755.755 0 0 0-.764.746c0 .412.342.745.764.745ZM47.749 9.182a.755.755 0 0 0 .764-.746.755.755 0 0 0-.764-.746.755.755 0 0 0-.764.746c0 .412.342.746.764.746ZM43.93 12.574a.755.755 0 0 0 .763-.745.755.755 0 0 0-.764-.746.755.755 0 0 0-.764.746c0 .411.342.745.764.745ZM39.918 16.137a.755.755 0 0 0 .764-.746.755.755 0 0 0-.764-.745.755.755 0 0 0-.764.745c0 .412.342.746.764.746ZM36.098 19.529a.755.755 0 0 0 .764-.746.755.755 0 0 0-.764-.745.755.755 0 0 0-.764.745c0 .412.342.746.764.746ZM32.087 22.921a.755.755 0 0 0 .764-.745.755.755 0 0 0-.764-.746.755.755 0 0 0-.764.746c0 .412.342.745.764.745ZM28.267 26.314a.755.755 0 0 0 .764-.745.755.755 0 0 0-.764-.746.755.755 0 0 0-.764.746c0 .411.342.745.764.745ZM24.256 29.706a.755.755 0 0 0 .764-.745.755.755 0 0 0-.764-.746.755.755 0 0 0-.764.746c0 .412.342.745.764.745ZM20.437 33.099a.755.755 0 0 0 .764-.746.755.755 0 0 0-.764-.746.755.755 0 0 0-.764.746c0 .412.342.745.764.745ZM16.426 36.492a.755.755 0 0 0 .764-.746.755.755 0 0 0-.764-.745.755.755 0 0 0-.764.745c0 .412.342.746.764.746ZM12.606 39.884a.755.755 0 0 0 .764-.745.755.755 0 0 0-.764-.746.755.755 0 0 0-.764.746c0 .411.342.745.764.745ZM8.595 43.277a.755.755 0 0 0 .764-.746.755.755 0 0 0-.764-.745.755.755 0 0 0-.764.745c0 .412.342.746.764.746ZM4.775 46.67a.755.755 0 0 0 .764-.746.755.755 0 0 0-.764-.745.755.755 0 0 0-.764.745c0 .412.342.746.764.746ZM.764 50.062a.755.755 0 0 0 .764-.746.755.755 0 0 0-.764-.745.755.755 0 0 0-.764.745c0 .412.342.746.764.746ZM60.164 6.69a.755.755 0 0 0 .764-.745.755.755 0 0 0-.764-.746.755.755 0 0 0-.764.746c0 .412.342.745.764.745ZM56.344 10.002a.755.755 0 0 0 .764-.746.755.755 0 0 0-.764-.745.755.755 0 0 0-.764.745c0 .412.342.746.764.746ZM52.333 13.422a.755.755 0 0 0 .764-.745.755.755 0 0 0-.764-.746.755.755 0 0 0-.764.746c0 .412.342.745.764.745ZM48.322 16.815a.755.755 0 0 0 .764-.745.755.755 0 0 0-.764-.746.755.755 0 0 0-.764.746c0 .411.342.745.764.745ZM44.502 20.207a.755.755 0 0 0 .764-.745.755.755 0 0 0-.764-.746.755.755 0 0 0-.764.746c0 .412.342.745.764.745ZM40.491 23.6a.755.755 0 0 0 .764-.746.755.755 0 0 0-.764-.745.755.755 0 0 0-.764.745c0 .412.342.746.764.746ZM36.671 26.993a.755.755 0 0 0 .764-.746.755.755 0 0 0-.764-.745.755.755 0 0 0-.764.745c0 .412.342.746.764.746ZM32.66 30.385a.755.755 0 0 0 .764-.745.755.755 0 0 0-.764-.746.755.755 0 0 0-.764.746c0 .412.342.745.764.745ZM28.84 33.778a.755.755 0 0 0 .764-.746.755.755 0 0 0-.764-.745.755.755 0 0 0-.764.745c0 .412.343.746.764.746ZM24.83 37.17a.755.755 0 0 0 .763-.745.755.755 0 0 0-.764-.746.755.755 0 0 0-.764.746c0 .412.342.745.764.745ZM21.01 40.563a.755.755 0 0 0 .763-.746.755.755 0 0 0-.764-.745.755.755 0 0 0-.764.745c0 .412.342.746.764.746ZM16.998 43.956a.755.755 0 0 0 .764-.746.755.755 0 0 0-.764-.745.755.755 0 0 0-.764.745c0 .412.342.746.764.746ZM13.179 47.348a.755.755 0 0 0 .764-.745.755.755 0 0 0-.764-.746.755.755 0 0 0-.764.746c0 .411.342.745.764.745ZM9.168 50.74a.755.755 0 0 0 .764-.745.755.755 0 0 0-.764-.746.755.755 0 0 0-.764.746c0 .411.342.745.764.745ZM5.348 54.133a.755.755 0 0 0 .764-.745.755.755 0 0 0-.764-.746.755.755 0 0 0-.764.746c0 .411.342.745.764.745ZM64.748 10.708a.755.755 0 0 0 .764-.746.755.755 0 0 0-.764-.745.755.755 0 0 0-.764.745c0 .412.342.746.764.746ZM60.737 14.435a.755.755 0 0 0 .764-.745.755.755 0 0 0-.764-.746.755.755 0 0 0-.764.746c0 .412.342.745.764.745ZM56.917 17.493a.755.755 0 0 0 .764-.745.755.755 0 0 0-.764-.746.755.755 0 0 0-.764.746c0 .412.342.745.764.745ZM52.906 20.886a.755.755 0 0 0 .764-.746.755.755 0 0 0-.764-.745.755.755 0 0 0-.764.745c0 .412.342.746.764.746ZM49.086 24.278a.755.755 0 0 0 .764-.745.755.755 0 0 0-.764-.746.755.755 0 0 0-.764.746c0 .411.342.745.764.745ZM45.075 27.671a.755.755 0 0 0 .764-.745.755.755 0 0 0-.764-.746.755.755 0 0 0-.764.745c0 .412.342.746.764.746ZM41.255 31.063a.755.755 0 0 0 .764-.745.755.755 0 0 0-.764-.746.755.755 0 0 0-.764.746c0 .411.342.745.764.745ZM37.245 34.456a.755.755 0 0 0 .764-.745.755.755 0 0 0-.764-.746.755.755 0 0 0-.764.746c0 .411.342.745.764.745ZM33.234 37.849a.755.755 0 0 0 .764-.746.755.755 0 0 0-.764-.745.755.755 0 0 0-.764.745c0 .412.342.746.764.746ZM29.414 41.241a.755.755 0 0 0 .764-.745.755.755 0 0 0-.764-.746.755.755 0 0 0-.764.746c0 .411.342.745.764.745ZM25.403 44.634a.755.755 0 0 0 .764-.746.755.755 0 0 0-.764-.745.755.755 0 0 0-.764.745c0 .412.342.746.764.746ZM21.583 48.026a.755.755 0 0 0 .764-.745.755.755 0 0 0-.764-.746.755.755 0 0 0-.764.746c0 .412.342.745.764.745ZM17.572 51.419a.755.755 0 0 0 .764-.746.755.755 0 0 0-.764-.745.755.755 0 0 0-.764.745c0 .412.342.746.764.746ZM13.752 54.81a.755.755 0 0 0 .764-.745.755.755 0 0 0-.764-.745.755.755 0 0 0-.764.745c0 .412.342.746.764.746ZM9.74 58.203a.755.755 0 0 0 .765-.745.755.755 0 0 0-.764-.746.755.755 0 0 0-.764.746c0 .412.342.745.764.745ZM69.14 14.78a.755.755 0 0 0 .765-.746.755.755 0 0 0-.764-.746.755.755 0 0 0-.764.746c0 .411.342.745.764.745ZM65.32 18.507a.755.755 0 0 0 .765-.746.755.755 0 0 0-.764-.745.755.755 0 0 0-.764.745c0 .412.342.746.764.746ZM61.31 21.565a.755.755 0 0 0 .764-.746.755.755 0 0 0-.764-.745.755.755 0 0 0-.764.745c0 .412.342.746.764.746ZM57.49 24.957a.755.755 0 0 0 .764-.746.755.755 0 0 0-.764-.745.755.755 0 0 0-.764.745c0 .412.342.746.764.746ZM53.479 28.35a.755.755 0 0 0 .764-.746.755.755 0 0 0-.764-.746.755.755 0 0 0-.764.746c0 .412.342.745.764.745ZM49.66 31.742a.755.755 0 0 0 .763-.746.755.755 0 0 0-.764-.745.755.755 0 0 0-.764.745c0 .412.342.746.764.746ZM45.648 35.135a.755.755 0 0 0 .764-.746.755.755 0 0 0-.764-.746.755.755 0 0 0-.764.746c0 .412.342.745.764.745ZM41.828 38.527a.755.755 0 0 0 .764-.746.755.755 0 0 0-.764-.745.755.755 0 0 0-.764.745c0 .412.342.746.764.746ZM37.817 41.92a.755.755 0 0 0 .764-.746.755.755 0 0 0-.764-.745.755.755 0 0 0-.764.745c0 .412.342.746.764.746ZM33.997 45.312a.755.755 0 0 0 .764-.745.755.755 0 0 0-.764-.746.755.755 0 0 0-.764.746c0 .411.342.745.764.745ZM29.986 48.705a.755.755 0 0 0 .764-.746.755.755 0 0 0-.764-.746.755.755 0 0 0-.764.746c0 .412.342.746.764.746ZM26.166 52.097a.755.755 0 0 0 .764-.745.755.755 0 0 0-.764-.746.755.755 0 0 0-.764.746c0 .412.342.745.764.745ZM22.156 55.49a.755.755 0 0 0 .764-.746.755.755 0 0 0-.764-.745.755.755 0 0 0-.764.745c0 .412.342.746.764.746ZM18.336 58.882a.755.755 0 0 0 .764-.745.755.755 0 0 0-.764-.746.755.755 0 0 0-.764.746c0 .411.342.745.764.745ZM14.325 62.444a.755.755 0 0 0 .764-.745.755.755 0 0 0-.764-.746.755.755 0 0 0-.764.746c0 .412.342.745.764.745ZM73.724 18.85a.755.755 0 0 0 .764-.745.755.755 0 0 0-.764-.746.755.755 0 0 0-.764.746c0 .412.342.745.764.745ZM69.713 22.579a.755.755 0 0 0 .765-.746.755.755 0 0 0-.764-.746.755.755 0 0 0-.764.746c0 .412.342.746.763.746ZM65.894 25.636a.755.755 0 0 0 .763-.746.755.755 0 0 0-.763-.745.755.755 0 0 0-.765.745c0 .412.343.746.764.746ZM61.883 29.028a.755.755 0 0 0 .764-.745.755.755 0 0 0-.764-.746.755.755 0 0 0-.764.746c0 .412.342.745.764.745ZM58.063 32.42a.755.755 0 0 0 .764-.745.755.755 0 0 0-.764-.746.755.755 0 0 0-.764.746c0 .412.342.745.764.745ZM54.052 35.813a.755.755 0 0 0 .764-.745.755.755 0 0 0-.764-.746.755.755 0 0 0-.764.746c0 .411.342.745.764.745ZM50.232 39.206a.755.755 0 0 0 .764-.746.755.755 0 0 0-.764-.746.755.755 0 0 0-.764.746c0 .412.342.745.764.745ZM46.221 42.598a.755.755 0 0 0 .764-.745.755.755 0 0 0-.764-.746.755.755 0 0 0-.764.746c0 .412.342.745.764.745ZM42.401 45.99a.755.755 0 0 0 .764-.745.755.755 0 0 0-.764-.745.755.755 0 0 0-.764.745c0 .412.342.746.764.746ZM38.39 49.384a.755.755 0 0 0 .764-.746.755.755 0 0 0-.764-.745.755.755 0 0 0-.764.745c0 .412.342.746.764.746ZM34.57 52.776a.755.755 0 0 0 .764-.745.755.755 0 0 0-.764-.746.755.755 0 0 0-.764.746c0 .412.342.745.764.745ZM30.56 56.168a.755.755 0 0 0 .763-.745.755.755 0 0 0-.764-.746.755.755 0 0 0-.764.746c0 .412.342.745.764.745ZM26.74 59.73a.755.755 0 0 0 .763-.745.755.755 0 0 0-.764-.745.755.755 0 0 0-.764.745c0 .412.342.746.764.746ZM22.728 63.123a.755.755 0 0 0 .764-.746.755.755 0 0 0-.764-.745.755.755 0 0 0-.764.745c0 .412.342.746.764.746ZM18.909 66.516a.755.755 0 0 0 .764-.746.755.755 0 0 0-.764-.745.755.755 0 0 0-.764.745c0 .412.342.746.764.746ZM78.308 22.921a.755.755 0 0 0 .764-.745.755.755 0 0 0-.764-.746.755.755 0 0 0-.764.746c0 .412.342.745.764.745ZM74.297 26.65a.755.755 0 0 0 .764-.746.755.755 0 0 0-.764-.746.755.755 0 0 0-.764.745c0 .412.343.746.764.746ZM70.478 29.706a.755.755 0 0 0 .763-.745.755.755 0 0 0-.763-.746.755.755 0 0 0-.764.746c0 .412.341.745.764.745ZM66.467 33.099a.755.755 0 0 0 .764-.746.755.755 0 0 0-.764-.746.755.755 0 0 0-.764.746c0 .412.342.745.764.745ZM62.456 36.492a.755.755 0 0 0 .764-.746.755.755 0 0 0-.764-.745.755.755 0 0 0-.764.745c0 .412.342.746.764.746ZM58.636 39.884a.755.755 0 0 0 .764-.745.755.755 0 0 0-.764-.746.755.755 0 0 0-.764.746c0 .411.342.745.764.745ZM54.625 43.276a.755.755 0 0 0 .764-.745.755.755 0 0 0-.764-.746.755.755 0 0 0-.764.746c0 .412.342.745.764.745ZM50.805 46.67a.755.755 0 0 0 .764-.746.755.755 0 0 0-.764-.745.755.755 0 0 0-.764.745c0 .412.342.746.764.746ZM46.794 50.062a.755.755 0 0 0 .764-.746.755.755 0 0 0-.764-.745.755.755 0 0 0-.764.745c0 .412.342.746.764.746ZM42.974 53.455a.755.755 0 0 0 .764-.746.755.755 0 0 0-.764-.746.755.755 0 0 0-.764.746c0 .412.342.745.764.745ZM38.963 57.016a.755.755 0 0 0 .764-.745.755.755 0 0 0-.764-.746.755.755 0 0 0-.764.746c0 .411.342.745.764.745ZM35.143 60.41a.755.755 0 0 0 .764-.746.755.755 0 0 0-.764-.745.755.755 0 0 0-.764.745c0 .412.342.746.764.746ZM31.132 63.802a.755.755 0 0 0 .764-.746.755.755 0 0 0-.764-.745.755.755 0 0 0-.764.745c0 .412.342.746.764.746ZM27.312 67.194a.755.755 0 0 0 .764-.745.755.755 0 0 0-.764-.746.755.755 0 0 0-.764.746c0 .412.342.745.764.745ZM23.302 70.587a.755.755 0 0 0 .764-.745.755.755 0 0 0-.764-.746.755.755 0 0 0-.764.746c0 .411.342.745.764.745ZM82.701 26.993a.755.755 0 0 0 .764-.746.755.755 0 0 0-.764-.745.755.755 0 0 0-.764.745c0 .412.342.746.764.746ZM78.882 30.72a.755.755 0 0 0 .763-.745.755.755 0 0 0-.763-.745.755.755 0 0 0-.764.745c0 .412.342.746.764.746ZM74.87 33.778a.755.755 0 0 0 .764-.746.755.755 0 0 0-.764-.745.755.755 0 0 0-.764.745c0 .412.343.746.764.746ZM71.05 37.17a.755.755 0 0 0 .764-.745.755.755 0 0 0-.763-.746.755.755 0 0 0-.764.746c0 .412.341.745.763.745ZM67.04 40.562a.755.755 0 0 0 .764-.745.755.755 0 0 0-.764-.746.755.755 0 0 0-.764.746c0 .412.342.745.764.745ZM63.22 43.956a.755.755 0 0 0 .764-.746.755.755 0 0 0-.764-.745.755.755 0 0 0-.764.745c0 .412.342.746.764.746ZM59.209 47.348a.755.755 0 0 0 .764-.746.755.755 0 0 0-.764-.745.755.755 0 0 0-.764.745c0 .412.342.746.764.746ZM55.389 50.74a.755.755 0 0 0 .764-.745.755.755 0 0 0-.764-.746.755.755 0 0 0-.764.746c0 .411.342.745.764.745ZM51.378 54.133a.755.755 0 0 0 .764-.745.755.755 0 0 0-.764-.746.755.755 0 0 0-.764.746c0 .411.342.745.764.745ZM47.367 57.696a.755.755 0 0 0 .764-.746.755.755 0 0 0-.764-.746.755.755 0 0 0-.764.746c0 .412.342.745.764.745ZM43.547 61.088a.755.755 0 0 0 .764-.746.755.755 0 0 0-.764-.745.755.755 0 0 0-.764.745c0 .412.342.746.764.746ZM39.536 64.48a.755.755 0 0 0 .764-.745.755.755 0 0 0-.764-.746.755.755 0 0 0-.764.746c0 .411.342.745.764.745ZM35.716 67.873a.755.755 0 0 0 .764-.746.755.755 0 0 0-.764-.745.755.755 0 0 0-.764.745c0 .412.342.746.764.746ZM31.705 71.265a.755.755 0 0 0 .764-.745.755.755 0 0 0-.764-.746.755.755 0 0 0-.764.746c0 .412.342.745.764.745ZM27.885 74.658a.755.755 0 0 0 .764-.746.755.755 0 0 0-.764-.746.755.755 0 0 0-.764.746c0 .412.343.746.764.746ZM87.285 31.064a.755.755 0 0 0 .764-.746.755.755 0 0 0-.764-.745.755.755 0 0 0-.764.745c0 .412.342.746.764.746ZM83.274 34.791a.755.755 0 0 0 .764-.745.755.755 0 0 0-.764-.746.755.755 0 0 0-.764.746c0 .412.342.745.764.745ZM79.454 37.849a.755.755 0 0 0 .764-.746.755.755 0 0 0-.764-.745.755.755 0 0 0-.764.745c0 .412.343.746.764.746ZM75.444 41.241a.755.755 0 0 0 .763-.745.755.755 0 0 0-.763-.746.755.755 0 0 0-.765.746c0 .411.343.745.764.745ZM71.623 44.634a.755.755 0 0 0 .764-.746.755.755 0 0 0-.764-.745.755.755 0 0 0-.764.745c0 .412.343.746.764.746ZM67.613 48.026a.755.755 0 0 0 .764-.745.755.755 0 0 0-.764-.746.755.755 0 0 0-.764.746c0 .412.342.745.764.745ZM63.793 51.419a.755.755 0 0 0 .764-.746.755.755 0 0 0-.764-.745.755.755 0 0 0-.764.745c0 .412.342.746.764.746ZM59.782 54.981a.755.755 0 0 0 .764-.745.755.755 0 0 0-.764-.746.755.755 0 0 0-.764.745c0 .412.342.746.764.746ZM55.962 58.374a.755.755 0 0 0 .764-.746.755.755 0 0 0-.764-.745.755.755 0 0 0-.764.745c0 .412.342.746.764.746ZM51.95 61.766a.755.755 0 0 0 .765-.745.755.755 0 0 0-.764-.746.755.755 0 0 0-.764.745c0 .412.342.746.764.746ZM48.13 65.159a.755.755 0 0 0 .765-.746.755.755 0 0 0-.764-.745.755.755 0 0 0-.764.745c0 .412.342.746.764.746ZM44.12 68.551a.755.755 0 0 0 .764-.745.755.755 0 0 0-.764-.746.755.755 0 0 0-.764.746c0 .412.342.745.764.745ZM40.3 71.944a.755.755 0 0 0 .764-.746.755.755 0 0 0-.764-.745.755.755 0 0 0-.764.745c0 .412.342.746.764.746ZM36.29 75.336a.755.755 0 0 0 .763-.745.755.755 0 0 0-.764-.746.755.755 0 0 0-.764.746c0 .412.343.745.764.745ZM32.47 78.73a.755.755 0 0 0 .763-.746.755.755 0 0 0-.764-.746.755.755 0 0 0-.764.746c0 .412.342.745.764.745ZM91.678 35.135a.755.755 0 0 0 .764-.746.755.755 0 0 0-.764-.745.755.755 0 0 0-.764.745c0 .412.342.746.764.746ZM87.858 38.863a.755.755 0 0 0 .764-.746.755.755 0 0 0-.764-.745.755.755 0 0 0-.764.745c0 .412.342.746.764.746ZM83.847 41.92a.755.755 0 0 0 .764-.746.755.755 0 0 0-.764-.745.755.755 0 0 0-.764.745c0 .412.342.746.764.746ZM80.027 45.312a.755.755 0 0 0 .764-.746.755.755 0 0 0-.764-.745.755.755 0 0 0-.764.745c0 .412.342.746.764.746ZM76.016 48.705a.755.755 0 0 0 .764-.746.755.755 0 0 0-.764-.746.755.755 0 0 0-.764.746c0 .412.343.746.764.746ZM72.197 52.267a.755.755 0 0 0 .763-.746.755.755 0 0 0-.763-.745.755.755 0 0 0-.764.745c0 .412.341.746.763.746ZM68.186 55.66a.755.755 0 0 0 .764-.746.755.755 0 0 0-.764-.746.755.755 0 0 0-.764.746c0 .411.342.745.764.745ZM64.366 59.052a.755.755 0 0 0 .764-.745.755.755 0 0 0-.764-.746.755.755 0 0 0-.764.746c0 .411.342.745.764.745ZM60.355 62.445a.755.755 0 0 0 .764-.746.755.755 0 0 0-.764-.745.755.755 0 0 0-.764.745c0 .412.342.746.764.746ZM56.535 65.837a.755.755 0 0 0 .764-.746.755.755 0 0 0-.764-.745.755.755 0 0 0-.764.745c0 .412.342.746.764.746ZM52.524 69.23a.755.755 0 0 0 .764-.746.755.755 0 0 0-.764-.745.755.755 0 0 0-.764.745c0 .412.342.746.764.746ZM48.704 72.622a.755.755 0 0 0 .764-.745.755.755 0 0 0-.764-.746.755.755 0 0 0-.764.746c0 .411.342.745.764.745ZM44.693 76.016a.755.755 0 0 0 .764-.746.755.755 0 0 0-.764-.746.755.755 0 0 0-.764.746c0 .412.342.746.764.746ZM40.873 79.408a.755.755 0 0 0 .764-.745.755.755 0 0 0-.764-.746.755.755 0 0 0-.764.746c0 .411.342.745.764.745ZM36.862 82.8a.755.755 0 0 0 .764-.746.755.755 0 0 0-.764-.745.755.755 0 0 0-.764.745c0 .412.342.746.764.746ZM96.262 39.206a.755.755 0 0 0 .764-.746.755.755 0 0 0-.764-.745.755.755 0 0 0-.764.745c0 .412.342.746.764.746ZM92.442 42.934a.755.755 0 0 0 .764-.746.755.755 0 0 0-.764-.746.755.755 0 0 0-.764.746c0 .412.342.746.764.746ZM88.431 45.99a.755.755 0 0 0 .764-.745.755.755 0 0 0-.764-.745.755.755 0 0 0-.764.745c0 .412.342.746.764.746ZM84.611 49.553a.755.755 0 0 0 .764-.746.755.755 0 0 0-.764-.745.755.755 0 0 0-.764.745c0 .412.342.746.764.746ZM80.6 52.946a.755.755 0 0 0 .764-.746.755.755 0 0 0-.764-.745.755.755 0 0 0-.764.745c0 .412.342.746.764.746ZM76.59 56.338a.755.755 0 0 0 .763-.746.755.755 0 0 0-.764-.745.755.755 0 0 0-.764.745c0 .412.343.746.764.746ZM72.77 59.73a.755.755 0 0 0 .763-.745.755.755 0 0 0-.764-.745.755.755 0 0 0-.764.745c0 .412.342.746.764.746ZM68.758 63.123a.755.755 0 0 0 .764-.745.755.755 0 0 0-.764-.746.755.755 0 0 0-.763.746c0 .411.342.745.763.745ZM64.939 66.516a.755.755 0 0 0 .764-.746.755.755 0 0 0-.764-.745.755.755 0 0 0-.764.745c0 .412.342.746.764.746ZM60.928 69.908a.755.755 0 0 0 .764-.745.755.755 0 0 0-.764-.746.755.755 0 0 0-.764.746c0 .412.342.745.764.745ZM57.108 73.3a.755.755 0 0 0 .764-.745.755.755 0 0 0-.764-.746.755.755 0 0 0-.764.746c0 .412.342.745.764.745ZM53.097 76.694a.755.755 0 0 0 .764-.746.755.755 0 0 0-.764-.746.755.755 0 0 0-.764.746c0 .412.342.746.764.746ZM49.277 80.087a.755.755 0 0 0 .764-.746.755.755 0 0 0-.764-.745.755.755 0 0 0-.764.745c0 .412.342.746.764.746ZM45.266 83.478a.755.755 0 0 0 .764-.746.755.755 0 0 0-.764-.746.755.755 0 0 0-.764.746c0 .412.342.746.764.746ZM41.446 86.871a.755.755 0 0 0 .764-.746.755.755 0 0 0-.764-.745.755.755 0 0 0-.764.745c0 .412.342.746.764.746ZM100.846 43.277a.755.755 0 0 0 .764-.746.755.755 0 0 0-.764-.745.755.755 0 0 0-.764.745c0 .412.342.746.764.746ZM96.835 47.19a.755.755 0 0 0 .764-.746.755.755 0 0 0-.764-.746.755.755 0 0 0-.764.746c0 .412.342.745.764.745ZM93.015 50.231a.755.755 0 0 0 .764-.745.755.755 0 0 0-.764-.746.755.755 0 0 0-.764.746c0 .412.342.745.764.745ZM89.004 53.624a.755.755 0 0 0 .764-.746.755.755 0 0 0-.764-.745.755.755 0 0 0-.764.745c0 .412.342.746.764.746ZM85.184 57.017a.755.755 0 0 0 .764-.746.755.755 0 0 0-.764-.745.755.755 0 0 0-.764.745c0 .412.342.746.764.746ZM81.173 60.41a.755.755 0 0 0 .764-.746.755.755 0 0 0-.764-.746.755.755 0 0 0-.764.746c0 .412.342.745.764.745ZM77.353 63.802a.755.755 0 0 0 .764-.745.755.755 0 0 0-.764-.746.755.755 0 0 0-.764.746c0 .411.342.745.764.745ZM73.342 67.194a.755.755 0 0 0 .764-.746.755.755 0 0 0-.764-.745.755.755 0 0 0-.764.745c0 .412.342.746.764.746ZM69.522 70.587a.755.755 0 0 0 .764-.746.755.755 0 0 0-.764-.745.755.755 0 0 0-.764.745c0 .412.343.746.764.746ZM65.511 73.979a.755.755 0 0 0 .764-.746.755.755 0 0 0-.764-.745.755.755 0 0 0-.763.745c0 .412.342.746.763.746ZM61.5 77.372a.755.755 0 0 0 .764-.745.755.755 0 0 0-.764-.746.755.755 0 0 0-.763.746c0 .412.342.745.764.745ZM57.68 80.765a.755.755 0 0 0 .765-.746.755.755 0 0 0-.764-.745.755.755 0 0 0-.764.745c0 .412.342.746.764.746ZM53.67 84.156a.755.755 0 0 0 .764-.745.755.755 0 0 0-.764-.746.755.755 0 0 0-.764.746c0 .412.342.745.764.745ZM49.85 87.55a.755.755 0 0 0 .764-.746.755.755 0 0 0-.764-.745.755.755 0 0 0-.764.745c0 .412.342.746.764.746ZM45.839 90.943a.755.755 0 0 0 .764-.746.755.755 0 0 0-.764-.746.755.755 0 0 0-.764.746c0 .412.342.746.764.746ZM105.239 47.517a.755.755 0 0 0 .764-.745.755.755 0 0 0-.764-.746.755.755 0 0 0-.764.746c0 .412.342.745.764.745ZM101.419 51.245a.755.755 0 0 0 .764-.745.755.755 0 0 0-.764-.746.755.755 0 0 0-.764.746c0 .412.342.745.764.745ZM97.408 54.303a.755.755 0 0 0 .764-.746.755.755 0 0 0-.764-.745.755.755 0 0 0-.764.745c0 .412.342.746.764.746ZM93.588 57.695a.755.755 0 0 0 .764-.745.755.755 0 0 0-.764-.746.755.755 0 0 0-.764.746c0 .411.342.745.764.745ZM89.577 61.087a.755.755 0 0 0 .764-.745.755.755 0 0 0-.764-.746.755.755 0 0 0-.764.746c0 .412.342.745.764.745ZM85.757 64.48a.755.755 0 0 0 .764-.745.755.755 0 0 0-.764-.746.755.755 0 0 0-.764.746c0 .411.342.745.764.745ZM81.746 67.872a.755.755 0 0 0 .764-.745.755.755 0 0 0-.764-.746.755.755 0 0 0-.764.746c0 .411.342.745.764.745ZM77.926 71.265a.755.755 0 0 0 .764-.746.755.755 0 0 0-.764-.745.755.755 0 0 0-.764.745c0 .412.342.746.764.746ZM73.915 74.658a.755.755 0 0 0 .764-.746.755.755 0 0 0-.764-.746.755.755 0 0 0-.764.746c0 .412.343.746.764.746ZM70.096 78.05a.755.755 0 0 0 .763-.745.755.755 0 0 0-.763-.745.755.755 0 0 0-.764.745c0 .412.342.746.764.746ZM66.085 81.443a.755.755 0 0 0 .764-.745.755.755 0 0 0-.764-.746.755.755 0 0 0-.764.746c0 .411.342.745.764.745ZM62.265 84.835a.755.755 0 0 0 .764-.746.755.755 0 0 0-.764-.745.755.755 0 0 0-.764.745c0 .412.342.746.764.746ZM58.254 88.228a.755.755 0 0 0 .764-.745.755.755 0 0 0-.764-.746.755.755 0 0 0-.764.746c0 .412.342.745.764.745ZM54.434 91.62a.755.755 0 0 0 .764-.745.755.755 0 0 0-.764-.746.755.755 0 0 0-.764.746c0 .412.342.746.764.746ZM50.423 95.012a.755.755 0 0 0 .764-.745.755.755 0 0 0-.764-.746.755.755 0 0 0-.764.746c0 .411.342.745.764.745ZM109.823 51.588a.755.755 0 0 0 .764-.745.755.755 0 0 0-.764-.746.755.755 0 0 0-.764.746c0 .411.342.745.764.745ZM105.812 55.316a.755.755 0 0 0 .764-.745.755.755 0 0 0-.764-.746.755.755 0 0 0-.764.745c0 .412.342.746.764.746ZM101.992 58.373a.755.755 0 0 0 .764-.745.755.755 0 0 0-.764-.746.755.755 0 0 0-.764.746c0 .411.342.745.764.745ZM97.98 61.766a.755.755 0 0 0 .765-.746.755.755 0 0 0-.764-.745.755.755 0 0 0-.764.745c0 .412.342.746.764.746ZM94.16 65.158a.755.755 0 0 0 .765-.745.755.755 0 0 0-.764-.746.755.755 0 0 0-.764.746c0 .411.342.745.764.745ZM90.15 68.551a.755.755 0 0 0 .764-.745.755.755 0 0 0-.764-.746.755.755 0 0 0-.764.746c0 .411.342.745.764.745ZM86.33 71.944a.755.755 0 0 0 .764-.746.755.755 0 0 0-.764-.746.755.755 0 0 0-.764.746c0 .412.342.746.764.746ZM82.32 75.336a.755.755 0 0 0 .763-.746.755.755 0 0 0-.764-.746.755.755 0 0 0-.764.746c0 .412.342.746.764.746ZM78.5 78.73a.755.755 0 0 0 .763-.746.755.755 0 0 0-.764-.745.755.755 0 0 0-.764.745c0 .412.342.746.764.746ZM74.488 82.121a.755.755 0 0 0 .764-.746.755.755 0 0 0-.764-.745.755.755 0 0 0-.764.745c0 .412.343.746.764.746ZM70.668 85.513a.755.755 0 0 0 .764-.745.755.755 0 0 0-.764-.746.755.755 0 0 0-.764.746c0 .412.342.745.764.745ZM66.657 88.907a.755.755 0 0 0 .764-.746.755.755 0 0 0-.764-.745.755.755 0 0 0-.763.745c0 .412.342.746.763.746ZM62.838 92.299a.755.755 0 0 0 .764-.746.755.755 0 0 0-.764-.746.755.755 0 0 0-.764.746c0 .412.342.746.764.746ZM58.827 95.862a.755.755 0 0 0 .764-.746.755.755 0 0 0-.764-.746.755.755 0 0 0-.764.746c0 .412.342.746.764.746ZM55.007 99.253a.755.755 0 0 0 .764-.746.755.755 0 0 0-.764-.745.755.755 0 0 0-.764.745c0 .412.342.746.764.746ZM114.407 55.66a.755.755 0 0 0 .764-.746.755.755 0 0 0-.764-.745.755.755 0 0 0-.764.745c0 .412.342.746.764.746ZM110.396 59.388a.755.755 0 0 0 .764-.746.755.755 0 0 0-.764-.745.755.755 0 0 0-.764.745c0 .412.342.746.764.746ZM106.576 62.445a.755.755 0 0 0 .764-.746.755.755 0 0 0-.764-.745.755.755 0 0 0-.764.745c0 .412.342.746.764.746ZM102.565 65.837a.755.755 0 0 0 .764-.746.755.755 0 0 0-.764-.745.755.755 0 0 0-.764.745c0 .412.342.746.764.746ZM98.745 69.23a.755.755 0 0 0 .764-.746.755.755 0 0 0-.764-.745.755.755 0 0 0-.764.745c0 .412.342.746.764.746ZM94.734 72.622a.755.755 0 0 0 .764-.745.755.755 0 0 0-.764-.746.755.755 0 0 0-.764.746c0 .411.342.745.764.745ZM90.723 76.015a.755.755 0 0 0 .764-.746.755.755 0 0 0-.764-.745.755.755 0 0 0-.764.745c0 .412.342.746.764.746ZM86.903 79.408a.755.755 0 0 0 .764-.745.755.755 0 0 0-.764-.746.755.755 0 0 0-.764.746c0 .412.342.745.764.745ZM82.892 82.8a.755.755 0 0 0 .764-.746.755.755 0 0 0-.764-.745.755.755 0 0 0-.764.745c0 .412.343.746.764.746ZM79.072 86.192a.755.755 0 0 0 .764-.745.755.755 0 0 0-.764-.746.755.755 0 0 0-.764.746c0 .412.342.745.764.745ZM75.061 89.586a.755.755 0 0 0 .764-.746.755.755 0 0 0-.764-.745.755.755 0 0 0-.764.745c0 .412.343.746.764.746ZM71.242 93.148a.755.755 0 0 0 .763-.745.755.755 0 0 0-.763-.746.755.755 0 0 0-.764.746c0 .411.342.745.764.745ZM67.23 96.54a.755.755 0 0 0 .764-.746.755.755 0 0 0-.763-.745.755.755 0 0 0-.764.745c0 .412.342.746.764.746ZM63.41 99.932a.755.755 0 0 0 .765-.746.755.755 0 0 0-.764-.745.755.755 0 0 0-.764.745c0 .412.342.746.764.746ZM59.4 103.325a.755.755 0 0 0 .764-.746.755.755 0 0 0-.764-.746.755.755 0 0 0-.764.746c0 .412.342.746.764.746ZM118.8 59.73a.755.755 0 0 0 .764-.745.755.755 0 0 0-.764-.746.755.755 0 0 0-.764.746c0 .412.342.745.764.745ZM114.98 63.459a.755.755 0 0 0 .764-.746.755.755 0 0 0-.764-.746.755.755 0 0 0-.764.746c0 .412.342.745.764.745ZM110.969 66.516a.755.755 0 0 0 .764-.746.755.755 0 0 0-.764-.746.755.755 0 0 0-.764.746c0 .412.342.746.764.746ZM107.149 69.908a.755.755 0 0 0 .764-.745.755.755 0 0 0-.764-.746.755.755 0 0 0-.764.746c0 .411.342.745.764.745ZM103.138 73.3a.755.755 0 0 0 .764-.745.755.755 0 0 0-.764-.746.755.755 0 0 0-.764.746c0 .411.342.745.764.745ZM99.318 76.693a.755.755 0 0 0 .764-.745.755.755 0 0 0-.764-.746.755.755 0 0 0-.764.746c0 .412.342.745.764.745ZM95.307 80.086a.755.755 0 0 0 .764-.745.755.755 0 0 0-.764-.746.755.755 0 0 0-.764.746c0 .412.342.745.764.745ZM91.487 83.477a.755.755 0 0 0 .764-.746.755.755 0 0 0-.764-.745.755.755 0 0 0-.764.745c0 .412.342.746.764.746ZM87.476 86.871a.755.755 0 0 0 .764-.745.755.755 0 0 0-.764-.746.755.755 0 0 0-.764.746c0 .411.342.745.764.745ZM83.656 90.433a.755.755 0 0 0 .764-.746.755.755 0 0 0-.764-.746.755.755 0 0 0-.764.746c0 .412.342.746.764.746ZM79.645 93.826a.755.755 0 0 0 .764-.745.755.755 0 0 0-.764-.746.755.755 0 0 0-.764.746c0 .412.342.745.764.745ZM75.635 97.218a.755.755 0 0 0 .764-.746.755.755 0 0 0-.764-.745.755.755 0 0 0-.764.745c0 .412.342.746.764.746ZM71.815 100.611a.755.755 0 0 0 .764-.746.755.755 0 0 0-.764-.746.755.755 0 0 0-.764.746c0 .412.342.746.764.746ZM67.804 104.003a.755.755 0 0 0 .764-.745.755.755 0 0 0-.764-.746.755.755 0 0 0-.764.746c0 .411.342.745.764.745ZM63.984 107.396a.755.755 0 0 0 .764-.746.754.754 0 0 0-.764-.745.754.754 0 0 0-.764.745c0 .412.342.746.764.746Z" fill="#8643DC"/></svg>