<svg width="60" height="60" fill="none" xmlns="http://www.w3.org/2000/svg"><path d="M60 30a29.961 29.961 0 0 1-.394 4.871C57.279 49.123 44.909 60 30 60a29.88 29.88 0 0 1-19.813-7.474 30.104 30.104 0 0 1-5.134-5.857A29.857 29.857 0 0 1 0 30C0 13.431 13.431 0 30 0c16.569 0 30 13.431 30 30Z" fill="#F2F2F2"/><path d="M52.355 33.396c-.91.344-.872.35-1.354-.527a7.61 7.61 0 0 1-.97-3.568c-.023-1.096.277-2.115.654-3.114.301-.795-.09-1.075-.779-1.147a7.507 7.507 0 0 0-1.52.005c-1.305.133-1.433.246-1.78 1.513-.205.752-.37 1.51-.711 2.224-.843 1.757-1.8 3.45-2.782 5.13-.176.302-.322.627-.57.886-.712-1.066-.98-2.242-1.04-3.477-.06-1.218.313-2.35.723-3.471.139-.377.024-.611-.302-.774a1.312 1.312 0 0 0-.464-.152c-.838-.066-1.673-.056-2.49.173-.367.101-.607.307-.689.72-.16.807-.408 1.59-.743 2.345-.93 2.089-1.855 4.181-2.785 6.271-.808 1.816-1.604 3.637-2.561 5.38-.068.124-.124.339-.293.296-.171-.043-.111-.254-.119-.398-.055-1.029.226-2.01.464-2.992.379-1.553.792-3.1 1.194-4.649.115-.444-.078-.743-.447-.956-.53-.305-1.058-.32-1.632.107a9.99 9.99 0 0 0 .086-1.74c-.061-1.237-.635-2.042-1.633-2.228-.728-.136-1.418.076-2.069.384-1.518.72-2.739 1.803-3.765 3.118-.12.153-.241.294-.415.388-1.926 1.05-3.851 2.099-5.772 3.158-.211.117-.347.084-.499-.078-.967-1.038-2.09-1.893-3.202-2.762-1.554-1.214-3.162-2.365-4.502-3.83-.784-.857-1.438-1.796-1.765-2.93-.534-1.854-.135-3.58.754-5.221 1.052-1.94 2.612-3.44 4.333-4.774 2.732-2.119 5.728-3.801 8.886-5.186C25.332 9.97 29 8.973 32.908 9.124c1.548.06 3.05.328 4.429 1.086.976.536 1.622 1.311 1.805 2.449.214 1.332-.106 2.563-.697 3.73-1.321 2.606-3.421 4.453-5.903 5.9-2.067 1.203-4.297 1.967-6.657 2.367-1.304.222-2.613.355-3.924.156-1.505-.23-2.896-.733-3.926-1.945-.119-.14-.27-.236-.471-.138-.207.1-.191.284-.172.46.015.121.048.244.091.36.276.742.791 1.303 1.395 1.793 1.57 1.277 3.43 1.652 5.383 1.69 1.911.038 3.793-.205 5.655-.65 4.202-1.004 7.72-3.065 10.29-6.597 1.535-2.11 2.508-4.437 2.422-7.1-.055-1.688-.623-3.18-1.854-4.391-1.463-1.44-3.28-2.163-5.227-2.598-2.17-.482-4.362-.55-6.576-.286-1.926.23-3.808.624-5.64 1.255a50.324 50.324 0 0 0-8.101 3.595c-2.655 1.477-5.156 3.168-7.35 5.286-1.943 1.875-3.612 3.943-4.552 6.51-.402 1.1-.69 2.23-.421 3.42.345 1.53 1.1 2.855 2.091 4.05 1.5 1.81 3.34 3.235 5.239 4.597 1.524 1.095 3.12 2.091 4.584 3.268.415.333.413.333-.076.589-.57.298-1.147.584-1.708.901-2.262 1.279-4.447 2.665-6.231 4.59-.878.95-1.475 2.015-1.753 3.198a30.093 30.093 0 0 0 5.134 5.857c3.331-.26 5.882-1.994 7.766-4.862.91-1.384 1.336-2.952 1.497-4.605a10.766 10.766 0 0 0-.436-4.259c-.075-.245-.353-.488-.244-.704.102-.198.408-.298.633-.428.909-.528 1.82-1.048 2.755-1.586.04.2-.038.319-.072.446-.536 1.968-.91 3.951-.502 5.996.254 1.274.676 2.472 1.48 3.527.826 1.085 2.671.96 3.42-.03.712-.94 1.183-2 1.674-3.056.27-.578.517-1.166.774-1.75a19.533 19.533 0 0 0-.02 2.072c.026.673.134 1.338.484 1.933.421.715 1.214.924 1.95.541.776-.402 1.305-1.066 1.716-1.786 1.765-3.097 3.402-6.26 4.758-9.562.289-.702.585-1.402.912-2.182.05.256.083.413.114.57a14.927 14.927 0 0 0 1.614 4.461c.166.3.148.507-.063.795-.715.974-1.499 1.89-2.271 2.815-.65.779-1.343 1.523-1.892 2.38-.492.772-.21 1.562.61 1.737.252.054.518.07.776.066 1.432-.017 2.753-.444 3.983-1.145 1.657-.944 2.64-2.328 2.594-4.298-.02-.896-.263-1.757-.625-2.579-.08-.182-.083-.314.036-.486 1.147-1.643 2.161-3.366 3.093-5.139.165-.312.282-.659.548-.964.036.124.064.201.08.28.297 1.47.696 2.906 1.445 4.218.206.359.103.541-.181.781a11.242 11.242 0 0 0-2.452 2.912c-.504.864-.85 1.788-.846 2.8.004 1.127.866 1.79 1.964 1.526a8.74 8.74 0 0 0 3.16-1.437c2.075-1.52 2.684-3.123 2.033-5.36-.254-.88-.25-.866.634-1.133 1.93-.582 3.89-.607 5.859-.286.222.037.443.078.66.126.116-.7.207-1.407.27-2.123-2.519-.616-5.034-.296-7.52.648ZM11.553 49.149a4.183 4.183 0 0 1-1.736.236c-.741-.059-1.211-.582-1.26-1.368-.053-.906.215-1.724.612-2.52.721-1.445 1.932-2.425 3.168-3.388 1.2-.937 2.492-1.736 3.797-2.514.395-.235.401-.233.492.239.117.605.223 1.211.184 1.76.103 3.298-2.292 6.505-5.257 7.555ZM29.526 32.52c-.208 1.39-.662 2.714-1.146 4.021-.659 1.786-1.3 3.58-2.13 5.296-.19.396-.389.789-.696 1.11-.29.306-.547.27-.748-.102-.392-.727-.343-1.537-.407-2.124.019-2.949 1.008-5.359 2.638-7.525.455-.604 1.037-1.095 1.807-1.292.523-.133.764.078.682.616Zm11.412 8.73c-.558.965-1.363 1.666-2.35 2.166-.105.052-.24.145-.336.022-.09-.117.055-.194.121-.267.98-1.072 1.95-2.152 2.823-3.314.013-.018.046-.02.12-.052-.008.537-.125 1.01-.378 1.445Zm6.773-.042c-.146.069-.315.197-.457.087-.156-.121-.094-.335-.046-.5a8.76 8.76 0 0 1 .937-2.132c.347-.562.778-1.053 1.252-1.51.191-.184.277-.162.342.102.067.271.073.542.078.817-.012 1.508-.777 2.51-2.106 3.136Z" fill="#CD6699"/></svg>