<svg width="55" height="60" fill="none" xmlns="http://www.w3.org/2000/svg"><path d="M27.5.01 55 14.99v29.97L27.5 59.94 0 44.96V14.99L27.5.01Z" fill="#fff"/><path d="M50.092 43.921 28.413 55.744V46.55l13.512-7.166 8.167 4.537Zm1.483-1.289V17.928l-7.928 4.407v15.89l7.928 4.407Zm-46.75 1.29 21.679 11.812V46.54l-13.512-7.156-8.167 4.537Zm-1.484-1.29V17.928l7.929 4.407v15.89L3.34 42.632Zm.924-26.303L26.504 4.217v8.895l-14.248 7.545-.114.06-7.877-4.388Zm46.377 0L28.413 4.217v8.895l14.238 7.555.114.06 7.877-4.398Z" fill="#8ED6FB"/><path d="m26.504 44.451-13.325-7.065V23.405l13.325 7.405v13.641Zm1.91 0 13.324-7.055V23.405L28.413 30.81v13.641ZM14.071 21.786 27.459 14.7l13.376 7.086-13.377 7.435-13.386-7.435Z" fill="#1C78C0"/></svg>